<?xml version="1.0" standalone="no"?>
<!DOCTYPE svg PUBLIC "-//W3C//DTD SVG 20010904//EN"
 "http://www.w3.org/TR/2001/REC-SVG-20010904/DTD/svg10.dtd">
<svg version="1.0" xmlns="http://www.w3.org/2000/svg"
 width="192.000000pt" height="192.000000pt" viewBox="0 0 192.000000 192.000000"
 preserveAspectRatio="xMidYMid meet">
<metadata>
Created by potrace 1.11, written by Peter Selinger 2001-2013
</metadata>
<g transform="translate(0.000000,192.000000) scale(0.100000,-0.100000)"
fill="#000000" stroke="none">
<path d="M950 1682 c0 -5 -19 -17 -42 -28 -24 -10 -72 -35 -108 -54 -36 -19
-85 -44 -110 -55 -25 -11 -49 -25 -55 -31 -5 -7 -48 -32 -95 -57 -47 -25 -103
-54 -125 -66 -22 -11 -45 -21 -52 -21 -6 0 -13 -4 -15 -8 -4 -11 -84 -58 -190
-112 -48 -25 -88 -47 -88 -50 0 -3 40 -25 88 -50 106 -54 186 -101 190 -112 2
-4 9 -8 15 -8 7 0 30 -10 52 -21 22 -12 78 -41 125 -66 47 -25 90 -51 96 -59
6 -8 15 -14 19 -14 4 0 48 -21 98 -47 51 -25 115 -57 142 -71 28 -13 53 -29
58 -36 5 -8 9 -8 15 0 4 7 30 23 57 36 28 14 91 46 142 71 50 26 94 47 98 47
4 0 13 6 19 14 6 8 49 34 96 59 47 25 103 54 125 66 22 11 45 21 52 21 7 0 13
3 13 8 0 12 100 64 113 59 9 -4 9 -6 0 -6 -20 -1 -18 -507 1 -527 20 -19 132
-19 152 0 11 12 14 70 14 328 l0 313 -88 45 c-106 54 -186 101 -190 112 -2 4
-9 8 -15 8 -7 0 -30 10 -52 21 -22 12 -78 41 -125 66 -47 25 -89 50 -95 57 -5
6 -30 20 -55 31 -25 11 -74 36 -110 55 -36 19 -84 44 -107 54 -24 11 -43 23
-43 28 0 4 -4 8 -10 8 -5 0 -10 -4 -10 -8z"/>
<path d="M400 850 c10 -6 11 -10 3 -10 -10 0 -13 -36 -13 -148 l0 -148 38 -21
c20 -11 73 -40 117 -63 44 -23 85 -48 91 -56 6 -8 15 -14 19 -14 4 0 48 -21
98 -47 51 -25 115 -57 142 -71 28 -13 53 -29 58 -36 5 -8 9 -8 15 0 8 13 282
154 298 154 4 0 12 6 18 14 6 8 47 33 91 56 44 23 97 52 118 63 l37 21 0 148
c0 112 -3 148 -12 148 -9 0 -8 4 2 10 13 8 12 10 -4 10 -10 0 -59 -22 -110
-49 -130 -70 -156 -85 -156 -93 0 -5 -6 -8 -12 -8 -14 0 -12 1 -170 -83 l-108
-58 -107 58 c-159 84 -157 83 -170 83 -7 0 -13 3 -13 8 0 8 -26 23 -156 93
-51 27 -100 49 -110 49 -16 0 -17 -2 -4 -10z"/>
</g>
</svg>
